HIERARCHY
ROOT Hips
{
	OFFSET 54.537498 -7.364145 93.819199
	CHANNELS 6 Xposition Yposition Zposition Xrotation Yrotation Zrotation
	JOINT spine
	{
		OFFSET 0.000000 -0.429886 7.475601
		CHANNELS 3 Xrotation Yrotation Zrotation
		JOINT spine1
		{
			OFFSET 0.000000 -0.000001 9.923012
			CHANNELS 3 Xrotation Yrotation Zrotation
			JOINT spine2
			{
				OFFSET 0.000000 -0.000001 9.508041
				CHANNELS 3 Xrotation Yrotation Zrotation
				JOINT Neck
				{
					OFFSET 0.000000 -1.163845 24.411095
					CHANNELS 3 Xrotation Yrotation Zrotation
					JOINT Head
					{
						OFFSET 0.000000 -0.000001 7.375229
						CHANNELS 3 Xrotation Yrotation Zrotation
						End Site
						{
							OFFSET 0.000000 5.887407 17.852203
						}
					}
				}
				JOINT RightShoulder
				{
					OFFSET -4.003559 0.557466 10.267906
					CHANNELS 3 Xrotation Yrotation Zrotation
					JOINT RightArm
					{
						OFFSET 0.000000 -0.000002 13.467300
						CHANNELS 3 Xrotation Yrotation Zrotation
						JOINT RightArmRoll
						{
							OFFSET 0.000000 -0.000001 6.798584
							CHANNELS 3 Xrotation Yrotation Zrotation
							JOINT RightForeArm
							{
								OFFSET 0.000000 -0.000003 19.801804
								CHANNELS 3 Xrotation Yrotation Zrotation
								JOINT RightForeArmRoll
								{
									OFFSET 0.000000 -0.000001 7.629044
									CHANNELS 3 Xrotation Yrotation Zrotation
									JOINT RightHand
									{
										OFFSET 0.000000 -0.000002 15.309799
										CHANNELS 3 Xrotation Yrotation Zrotation
										End Site
										{
											OFFSET 0.000000 0.000000 0.100006
										}
									}
								}
							}
						}
					}
				}
				JOINT LeftShoulder
				{
					OFFSET 4.003559 0.557466 10.267906
					CHANNELS 3 Xrotation Yrotation Zrotation
					JOINT LeftArm
					{
						OFFSET 0.000000 -0.000002 13.467300
						CHANNELS 3 Xrotation Yrotation Zrotation
						JOINT LeftArmRoll
						{
							OFFSET 0.000000 -0.000001 6.798584
							CHANNELS 3 Xrotation Yrotation Zrotation
							JOINT LeftForeArm
							{
								OFFSET 0.000000 -0.000003 19.801804
								CHANNELS 3 Xrotation Yrotation Zrotation
								JOINT LeftForeArmRoll
								{
									OFFSET 0.000000 -0.000001 7.629044
									CHANNELS 3 Xrotation Yrotation Zrotation
									JOINT LeftHand
									{
										OFFSET 0.000000 -0.000002 15.309799
										CHANNELS 3 Xrotation Yrotation Zrotation
										End Site
										{
											OFFSET 0.000000 0.000000 0.100006
										}
									}
								}
							}
						}
					}
				}
			}
		}
	}
	JOINT RightUpLeg
	{
		OFFSET -6.626091 1.019270 -1.215050
		CHANNELS 3 Xrotation Yrotation Zrotation
		JOINT RightUpLegRoll
		{
			OFFSET 0.000000 -0.000003 17.951698
			CHANNELS 3 Xrotation Yrotation Zrotation
			JOINT RightLeg
			{
				OFFSET 0.000000 0.000004 -22.230400
				CHANNELS 3 Xrotation Yrotation Zrotation
				JOINT RightLegRoll
				{
					OFFSET 0.000000 -0.000004 22.303200
					CHANNELS 3 Xrotation Yrotation Zrotation
					JOINT RightFoot
					{
						OFFSET 0.000000 -0.000003 18.563599
						CHANNELS 3 Xrotation Yrotation Zrotation
						JOINT RightToeBase
						{
							OFFSET 0.000000 -0.000002 15.518295
							CHANNELS 3 Xrotation Yrotation Zrotation
							End Site
							{
								OFFSET 0.006577 0.866261 7.515396
							}
						}
					}
				}
			}
		}
	}
	JOINT LeftUpLeg
	{
		OFFSET 6.626091 1.019270 -1.215050
		CHANNELS 3 Xrotation Yrotation Zrotation
		JOINT LeftUpLegRoll
		{
			OFFSET 0.000000 -0.000003 17.951797
			CHANNELS 3 Xrotation Yrotation Zrotation
			JOINT LeftLeg
			{
				OFFSET 0.000000 -0.000003 22.230309
				CHANNELS 3 Xrotation Yrotation Zrotation
				JOINT LeftLegRoll
				{
					OFFSET 0.000000 -0.000004 22.509308
					CHANNELS 3 Xrotation Yrotation Zrotation
					JOINT LeftFoot
					{
						OFFSET 0.000000 -0.000003 18.357498
						CHANNELS 3 Xrotation Yrotation Zrotation
						JOINT LeftToeBase
						{
							OFFSET 0.000000 -0.000003 15.518295
							CHANNELS 3 Xrotation Yrotation Zrotation
							End Site
							{
								OFFSET -0.029476 0.866262 7.515381
							}
						}
					}
				}
			}
		}
	}
}
MOTION
Frames: 7
Frame Time: 0.041667
54.915604 -6.023348 93.762398 -5.968753 1.171517 -2.824123 -1.372004 -0.239645 0.184889 1.259974 -0.481544 0.366382 2.905061 -0.477121 0.372117 11.330069 7.810070 -1.990752 4.662037 -8.354261 -1.270253 -4.978154 -68.422451 -6.716778 -63.088415 -143.084048 -88.815873 -0.000001 0.000001 0.000000 85.330578 -0.117324 -4.049032 0.000004 -0.000001 -3.000003 -5.000215 -7.998714 0.000162 -12.297217 69.067249 14.944514 -62.935405 144.013009 73.778269 -0.000000 -0.000005 0.000006 75.137019 3.660329 1.305800 -0.000003 0.000005 3.007349 -5.000219 7.999337 -0.000084 1.682319 -179.305306 -0.754456 -179.999991 0.000005 -1.149994 171.131305 -1.052269 -0.541187 -0.000007 0.000001 0.171373 70.309680 6.869335 2.098502 25.456971 -7.355616 0.000000 3.557170 177.062655 1.195913 -0.000005 -0.000004 -1.100800 -5.820528 2.782851 0.309171 -0.000007 0.000001 -0.057332 68.567729 -6.868083 -2.215546 25.456967 7.355617 -0.000000 
54.914703 -6.019517 93.760399 -5.969947 1.172678 -2.818307 -1.369530 -0.240184 0.184895 1.264515 -0.482931 0.366391 2.909603 -0.478507 0.372149 11.295299 7.808801 -1.994233 4.660083 -8.351473 -1.276733 -5.027757 -68.389475 -6.769471 -63.140345 -143.074527 -88.659475 -0.000000 -0.000000 -0.000009 85.443399 -0.099841 -4.083771 0.000003 0.000002 -3.000001 -5.000217 -7.998712 0.000160 -12.325049 69.020954 14.973824 -62.940050 143.963381 73.705541 -0.000003 -0.000005 0.000006 75.126337 3.653584 1.304067 -0.000001 0.000004 3.007349 -5.000220 7.999341 -0.000084 1.680684 -179.308298 -0.757004 -179.999991 0.000005 -1.149994 171.130417 -1.051281 -0.541049 -0.000007 0.000001 0.171348 70.308103 6.869372 2.098506 25.456971 -7.355617 -0.000001 3.544806 177.062628 1.196616 -0.000005 -0.000005 -1.100770 -5.837706 2.780538 0.309958 -0.000007 0.000001 -0.057308 68.566787 -6.868087 -2.215505 25.456969 7.355617 -0.000001 
54.910305 -6.018476 93.762703 -5.971800 1.174355 -2.813163 -1.367141 -0.240711 0.184840 1.268735 -0.484161 0.366276 2.913823 -0.479739 0.372054 11.267391 7.803563 -1.997540 4.653272 -8.346489 -1.282979 -5.071822 -68.358159 -6.816104 -63.192453 -143.064172 -88.507613 -0.000000 0.000000 -0.000003 85.547614 -0.085173 -4.114798 0.000004 -0.000000 -3.000002 -5.000216 -7.998718 0.000160 -12.350791 68.972767 15.000755 -62.940924 143.914435 73.629883 -0.000000 -0.000006 0.000005 75.112827 3.647553 1.301816 -0.000003 0.000006 3.007349 -5.000221 7.999343 -0.000084 1.679729 -179.312301 -0.759765 -179.999991 0.000005 -1.149994 171.130103 -1.049296 -0.541756 -0.000007 0.000001 0.171323 70.305876 6.869400 2.098448 25.456972 -7.355616 -0.000000 3.533136 177.060592 1.196833 -0.000005 -0.000005 -1.100750 -5.855218 2.778451 0.310714 -0.000007 0.000001 -0.057284 68.566896 -6.868097 -2.215500 25.456969 7.355618 -0.000001 
54.907703 -6.013628 93.762497 -5.974223 1.176578 -2.808571 -1.364782 -0.241237 0.184684 1.272716 -0.485270 0.365963 2.917802 -0.480850 0.371756 11.245233 7.794450 -2.000820 4.641848 -8.338829 -1.289283 -5.112440 -68.329533 -6.859149 -63.249102 -143.051605 -88.364889 -0.000002 -0.000000 0.000000 85.643107 -0.072799 -4.142110 0.000002 0.000000 -3.000000 -5.000219 -7.998713 0.000160 -12.374736 68.921547 15.025562 -62.936833 143.865026 73.550216 -0.000006 -0.000005 0.000006 75.096140 3.642404 1.299183 -0.000001 0.000003 3.007350 -5.000224 7.999341 -0.000084 1.679226 -179.317300 -0.762854 -179.999991 0.000005 -1.149994 171.130267 -1.048311 -0.541599 -0.000008 0.000001 0.171296 70.303007 6.869377 2.098624 25.456971 -7.355616 -0.000001 3.521667 177.058557 1.196757 -0.000005 -0.000005 -1.100720 -5.873689 2.776439 0.311455 -0.000007 0.000001 -0.057259 68.568160 -6.868076 -2.215517 25.456967 7.355616 -0.000000 
54.906803 -6.011447 93.762299 -5.977170 1.179286 -2.804485 -1.362442 -0.241760 0.184449 1.276487 -0.486277 0.365492 2.921575 -0.481862 0.371300 11.228232 7.781965 -2.004061 4.626391 -8.328878 -1.295598 -5.149882 -68.303408 -6.898864 -63.308176 -143.038163 -88.228682 0.000001 -0.000003 -0.000004 85.730861 -0.062455 -4.166083 0.000003 0.000001 -3.000000 -5.000219 -7.998715 0.000161 -12.396935 68.867595 15.048329 -62.928964 143.815220 73.468424 -0.000002 -0.000006 0.000006 75.076381 3.638156 1.295965 -0.000004 0.000003 3.007350 -5.000217 7.999337 -0.000085 1.679195 -179.322286 -0.766190 -179.999991 0.000005 -1.149994 171.130827 -1.047327 -0.541435 -0.000007 0.000001 0.171268 70.299497 6.869381 2.098640 25.456972 -7.355615 -0.000000 3.510469 177.056521 1.196420 -0.000005 -0.000004 -1.100700 -5.892882 2.774494 0.312179 -0.000007 0.000001 -0.057235 68.570366 -6.868085 -2.215583 25.456967 7.355615 -0.000000 
54.909603 -6.007725 93.763298 -5.980610 1.182402 -2.800808 -1.360123 -0.242281 0.184157 1.280087 -0.487203 0.364911 2.925164 -0.482795 0.370731 11.215803 7.766611 -2.007245 4.607477 -8.317015 -1.301859 -5.184394 -68.279263 -6.935474 -63.370119 -143.023164 -88.100288 0.000000 -0.000000 -0.000005 85.811847 -0.053866 -4.187094 0.000004 -0.000003 -3.000002 -5.000218 -7.998716 0.000160 -12.417577 68.811519 15.069289 -62.916998 143.765783 73.384031 -0.000002 -0.000006 0.000006 75.053636 3.634757 1.292254 -0.000003 0.000004 3.007352 -5.000221 7.999341 -0.000083 1.679643 -179.328283 -0.769749 -179.999991 0.000005 -1.149994 171.131797 -1.045359 -0.541110 -0.000007 0.000001 0.171239 70.295474 6.869405 2.098693 25.456969 -7.355617 -0.000001 3.499633 177.053489 1.195773 -0.000005 -0.000005 -1.100670 -5.912577 2.772644 0.312884 -0.000007 0.000001 -0.057211 68.573405 -6.868042 -2.215584 25.456971 7.355616 -0.000000 
54.909702 -5.999791 93.764191 -5.984516 1.185874 -2.797502 -1.357824 -0.242801 0.183833 1.283536 -0.488069 0.364262 2.928625 -0.483668 0.370094 11.207248 7.748884 -2.010343 4.585685 -8.303607 -1.308045 -5.216179 -68.256812 -6.969207 -63.432684 -143.007714 -87.976614 0.000003 -0.000000 -0.000004 85.886876 -0.046799 -4.205526 -0.000001 -0.000000 -3.000004 -5.000219 -7.998714 0.000161 -12.436858 68.753900 15.088690 -62.901384 143.717193 73.297861 -0.000004 -0.000006 0.000005 75.027996 3.632185 1.288141 -0.000003 0.000003 3.007350 -5.000219 7.999340 -0.000084 1.680579 -179.334266 -0.773447 -179.999991 0.000005 -1.149994 171.133135 -1.044365 -0.540930 -0.000007 0.000001 0.171208 70.291014 6.869418 2.098671 25.456972 -7.355616 -0.000000 3.489229 177.050483 1.194885 -0.000005 -0.000005 -1.100640 -5.932551 2.770894 0.313571 -0.000007 0.000001 -0.057187 68.577094 -6.868046 -2.215656 25.456969 7.355617 -0.000001 
